REM DIRINDEX 1\6,1\2\7,1\2\8,1\2\9,1\3\10,1\3\11,1\4\12,1\4\13,1\4\14,1\5\15,1\5\16,1\5\17
REM DIRNAME folder01,folder02,folder03,folder04,folder05,folder06,folder07,folder08,folder09,folder10,folder11,folder12,folder13,folder14,folder15,folder16,folder17
TITLE ""
FILE "P2Q_t2_0197-0214.mp3" MP3
  TRACK 01 AUDIO
    TITLE "7:cjc040_4418"
    INDEX 01 00:00:00
  TRACK 02 AUDIO
    TITLE "0:"
    INDEX 01 00:01:24
  TRACK 03 AUDIO
    TITLE "8:cjc040_4419"
    INDEX 01 00:02:06
  TRACK 04 AUDIO
    TITLE "0:"
    INDEX 01 00:04:70
  TRACK 05 AUDIO
    TITLE "9:cjc040_4420"
    INDEX 01 00:05:48
  TRACK 06 AUDIO
    TITLE "0:"
    INDEX 01 00:07:09
  TRACK 07 AUDIO
    TITLE "7:cjc040_4421"
    INDEX 01 00:08:66
  TRACK 08 AUDIO
    TITLE "0:"
    INDEX 01 00:10:04
  TRACK 09 AUDIO
    TITLE "8:cjc040_4422"
    INDEX 01 00:10:61
  TRACK 10 AUDIO
    TITLE "0:"
    INDEX 01 00:14:43
  TRACK 11 AUDIO
    TITLE "9:cjc040_4423"
    INDEX 01 00:15:23
  TRACK 12 AUDIO
    TITLE "0:"
    INDEX 01 00:16:40
  TRACK 13 AUDIO
    TITLE "7:cjc040_4424"
    INDEX 01 00:18:23
  TRACK 14 AUDIO
    TITLE "0:"
    INDEX 01 00:19:60
  TRACK 15 AUDIO
    TITLE "8:cjc040_4425"
    INDEX 01 00:20:41
  TRACK 16 AUDIO
    TITLE "0:"
    INDEX 01 00:24:53
  TRACK 17 AUDIO
    TITLE "9:cjc040_4426"
    INDEX 01 00:25:39
  TRACK 18 AUDIO
    TITLE "0:"
    INDEX 01 00:27:02
  TRACK 19 AUDIO
    TITLE "7:cjc040_4427"
    INDEX 01 00:28:57
  TRACK 20 AUDIO
    TITLE "0:"
    INDEX 01 00:29:68
  TRACK 21 AUDIO
    TITLE "8:cjc040_4428"
    INDEX 01 00:30:48
  TRACK 22 AUDIO
    TITLE "0:"
    INDEX 01 00:32:62
  TRACK 23 AUDIO
    TITLE "9:cjc040_4429"
    INDEX 01 00:33:36
  TRACK 24 AUDIO
    TITLE "0:"
    INDEX 01 00:34:53
  TRACK 25 AUDIO
    TITLE "7:cjc040_4430"
    INDEX 01 00:36:38
  TRACK 26 AUDIO
    TITLE "0:"
    INDEX 01 00:37:59
  TRACK 27 AUDIO
    TITLE "8:cjc040_4431"
    INDEX 01 00:38:35
  TRACK 28 AUDIO
    TITLE "0:"
    INDEX 01 00:39:51
  TRACK 29 AUDIO
    TITLE "9:cjc040_4432"
    INDEX 01 00:40:23
  TRACK 30 AUDIO
    TITLE "0:"
    INDEX 01 00:41:42
  TRACK 31 AUDIO
    TITLE "7:cjc040_4433"
    INDEX 01 00:43:25
  TRACK 32 AUDIO
    TITLE "0:"
    INDEX 01 00:44:48
  TRACK 33 AUDIO
    TITLE "8:cjc040_4434"
    INDEX 01 00:45:32
  TRACK 34 AUDIO
    TITLE "0:"
    INDEX 01 00:47:42
  TRACK 35 AUDIO
    TITLE "9:cjc040_4435"
    INDEX 01 00:48:24
  TRACK 36 AUDIO
    TITLE "0:"
    INDEX 01 00:49:49
  TRACK 37 AUDIO
    TITLE "7:cjc040_4436"
    INDEX 01 00:51:28
  TRACK 38 AUDIO
    TITLE "0:"
    INDEX 01 00:52:47
  TRACK 39 AUDIO
    TITLE "8:cjc040_4437"
    INDEX 01 00:53:29
  TRACK 40 AUDIO
    TITLE "0:"
    INDEX 01 00:56:20
  TRACK 41 AUDIO
    TITLE "9:cjc040_4438"
    INDEX 01 00:57:01
  TRACK 42 AUDIO
    TITLE "0:"
    INDEX 01 00:58:20
  TRACK 43 AUDIO
    TITLE "7:cjc040_4439"
    INDEX 01 01:00:06
  TRACK 44 AUDIO
    TITLE "0:"
    INDEX 01 01:01:23
  TRACK 45 AUDIO
    TITLE "8:cjc040_4440"
    INDEX 01 01:02:03
  TRACK 46 AUDIO
    TITLE "0:"
    INDEX 01 01:02:69
  TRACK 47 AUDIO
    TITLE "9:cjc040_4441"
    INDEX 01 01:03:45
  TRACK 48 AUDIO
    TITLE "0:"
    INDEX 01 01:04:70
  TRACK 49 AUDIO
    TITLE "7:cjc040_4442"
    INDEX 01 01:06:53
  TRACK 50 AUDIO
    TITLE "0:"
    INDEX 01 01:08:03
  TRACK 51 AUDIO
    TITLE "8:cjc040_4443"
    INDEX 01 01:08:54
  TRACK 52 AUDIO
    TITLE "0:"
    INDEX 01 01:10:04
  TRACK 53 AUDIO
    TITLE "9:cjc040_4444"
    INDEX 01 01:10:53
  TRACK 54 AUDIO
    TITLE "0:"
    INDEX 01 01:12:15
  TRACK 55 AUDIO
    TITLE "7:cjc040_4445"
    INDEX 01 01:13:71
  TRACK 56 AUDIO
    TITLE "0:"
    INDEX 01 01:15:01
  TRACK 57 AUDIO
    TITLE "8:cjc040_4446"
    INDEX 01 01:15:56
  TRACK 58 AUDIO
    TITLE "0:"
    INDEX 01 01:19:03
  TRACK 59 AUDIO
    TITLE "9:cjc040_4447"
    INDEX 01 01:19:62
  TRACK 60 AUDIO
    TITLE "0:"
    INDEX 01 01:20:69
  TRACK 61 AUDIO
    TITLE "7:cjc040_4448"
    INDEX 01 01:22:54
  TRACK 62 AUDIO
    TITLE "0:"
    INDEX 01 01:23:52
  TRACK 63 AUDIO
    TITLE "8:cjc040_4449"
    INDEX 01 01:24:39
  TRACK 64 AUDIO
    TITLE "0:"
    INDEX 01 01:27:20
  TRACK 65 AUDIO
    TITLE "9:cjc040_4450"
    INDEX 01 01:28:04
  TRACK 66 AUDIO
    TITLE "0:"
    INDEX 01 01:29:09
  TRACK 67 AUDIO
    TITLE "7:cjc040_4451"
    INDEX 01 01:30:69
  TRACK 68 AUDIO
    TITLE "0:"
    INDEX 01 01:32:04
  TRACK 69 AUDIO
    TITLE "8:cjc040_4452"
    INDEX 01 01:32:59
  TRACK 70 AUDIO
    TITLE "0:"
    INDEX 01 01:33:66
  TRACK 71 AUDIO
    TITLE "9:cjc040_4453"
    INDEX 01 01:34:44
  TRACK 72 AUDIO
    TITLE "0:"
    INDEX 01 01:35:57
  TRACK 73 AUDIO
    TITLE "7:cjc040_4454"
    INDEX 01 01:37:40
  TRACK 74 AUDIO
    TITLE "0:"
    INDEX 01 01:38:53
  TRACK 75 AUDIO
    TITLE "8:cjc040_4455"
    INDEX 01 01:39:33
  TRACK 76 AUDIO
    TITLE "0:"
    INDEX 01 01:42:02
  TRACK 77 AUDIO
    TITLE "9:cjc040_4456"
    INDEX 01 01:42:53
  TRACK 78 AUDIO
    TITLE "0:"
    INDEX 01 01:43:62
  TRACK 79 AUDIO
    TITLE "7:cjc040_4457"
    INDEX 01 01:45:44
  TRACK 80 AUDIO
    TITLE "0:"
    INDEX 01 01:46:51
  TRACK 81 AUDIO
    TITLE "8:cjc040_4458"
    INDEX 01 01:47:35
  TRACK 82 AUDIO
    TITLE "0:"
    INDEX 01 01:48:52
  TRACK 83 AUDIO
    TITLE "9:cjc040_4459"
    INDEX 01 01:49:32
  TRACK 84 AUDIO
    TITLE "0:"
    INDEX 01 01:50:39
  TRACK 85 AUDIO
    TITLE "7:cjc040_4460"
    INDEX 01 01:52:26
  TRACK 86 AUDIO
    TITLE "0:"
    INDEX 01 01:53:69
  TRACK 87 AUDIO
    TITLE "8:cjc040_4461"
    INDEX 01 01:54:46
  TRACK 88 AUDIO
    TITLE "0:"
    INDEX 01 01:56:67
  TRACK 89 AUDIO
    TITLE "9:cjc040_4462"
    INDEX 01 01:57:47
  TRACK 90 AUDIO
    TITLE "0:"
    INDEX 01 01:59:12
  TRACK 91 AUDIO
    TITLE "7:cjc040_4463"
    INDEX 01 02:00:72
  TRACK 92 AUDIO
    TITLE "0:"
    INDEX 01 02:02:22
  TRACK 93 AUDIO
    TITLE "8:cjc040_4464"
    INDEX 01 02:02:73
  TRACK 94 AUDIO
    TITLE "0:"
    INDEX 01 02:05:11
  TRACK 95 AUDIO
    TITLE "9:cjc040_4465"
    INDEX 01 02:05:62
  TRACK 96 AUDIO
    TITLE "0:"
    INDEX 01 02:07:18
  TRACK 97 AUDIO
    TITLE "7:cjc040_4466"
    INDEX 01 02:09:01
  TRACK 98 AUDIO
    TITLE "0:"
    INDEX 01 02:10:42
  TRACK 99 AUDIO
    TITLE "8:cjc040_4467"
    INDEX 01 02:11:19
  TRACK 100 AUDIO
    TITLE "0:"
    INDEX 01 02:12:25
  TRACK 101 AUDIO
    TITLE "9:cjc040_4468"
    INDEX 01 02:13:09
  TRACK 102 AUDIO
    TITLE "0:"
    INDEX 01 02:14:49
  TRACK 103 AUDIO
    TITLE "7:cjc040_4469"
    INDEX 01 02:16:30
  TRACK 104 AUDIO
    TITLE "0:"
    INDEX 01 02:17:63
  TRACK 105 AUDIO
    TITLE "8:cjc040_4470"
    INDEX 01 02:18:43
  TRACK 106 AUDIO
    TITLE "0:"
    INDEX 01 02:20:67
  TRACK 107 AUDIO
    TITLE "9:cjc040_4471"
    INDEX 01 02:21:43
  TRACK 108 AUDIO
    TITLE "0:"
    INDEX 01 02:23:05
